<svg xmlns="http://www.w3.org/2000/svg" xmlns:xlink="http://www.w3.org/1999/xlink" width="240" height="180" viewBox="0 0 240 180">
  <defs>
    <linearGradient id="linear-gradient" x1="0.972" y1="0.431" x2="0.014" y2="0.469" gradientUnits="objectBoundingBox">
      <stop offset="0" stop-color="#e3e3e3"/>
      <stop offset="0.084" stop-color="#86858c"/>
      <stop offset="0.251" stop-color="#b8b8ba"/>
      <stop offset="0.398" stop-color="#969697"/>
      <stop offset="0.561" stop-color="#fdfcff"/>
      <stop offset="0.594" stop-color="#858586"/>
      <stop offset="0.841" stop-color="#8d8b8b"/>
      <stop offset="1" stop-color="#d2d2d2"/>
    </linearGradient>
    <linearGradient id="linear-gradient-2" y1="0.528" x2="0.983" y2="0.458" gradientUnits="objectBoundingBox">
      <stop offset="0" stop-color="#636363"/>
      <stop offset="1" stop-color="#313131"/>
    </linearGradient>
    <clipPath id="clip-_2_-_WRAP_STYLE_DIGITAL_LENS">
      <rect width="240" height="180"/>
    </clipPath>
  </defs>
  <g id="_2_-_WRAP_STYLE_DIGITAL_LENS" data-name="2 - WRAP STYLE DIGITAL LENS" clip-path="url(#clip-_2_-_WRAP_STYLE_DIGITAL_LENS)">
    <rect width="240" height="180" fill="#fff"/>
    <path id="Path_3" data-name="Path 3" d="M-3532.907,548.215a140.219,140.219,0,0,1-4.716-27.665c-.421-6.273-.677-12.549.436-18.81a13.934,13.934,0,0,1,2.933-6.845,21.577,21.577,0,0,1,5.843-4.368,67.374,67.374,0,0,1,13.147-5.118c23.977-6.594,48.967-7.911,73.654-9.683,30.911-1.77,62.122-.325,92.557,5.552,5.085.91,10.88,2.249,15.919,3.371a108.332,108.332,0,0,1,11.243,3.185,24.064,24.064,0,0,1,4.859,2.352,10.306,10.306,0,0,1,1.891,1.66l.21.244a1.742,1.742,0,0,1,.2.256l.362.541a8.477,8.477,0,0,1,1.114,4.272,28.931,28.931,0,0,1-.67,5.92c-.595,3.063-1.289,6.066-1.874,9.091-1.143,6.034-2.118,12.171-2.887,18.263-.2,2.205-.584,4.5-.129,6.64.308,1.082,1.041,2.127.835,3.347a14.358,14.358,0,0,1-1.524,3.715c-5.7,10.65-13.288,25.358-18.979,35.927-3.543,5.94-10.527,8.424-16.758,10.432-8.931,2.64-17.964,4.726-27.057,6.657-21.318,3.887-43.057,5.247-64.708,5.161-15.453-.228-31.13-1.2-46.177-5.116-2.121-.586-4.672-1.322-6.734-2.124a29.3,29.3,0,0,1-5.287-2.8c-13.963-9.528-22.637-28.379-27.7-44.057Zm2.407-.738c4.809,15.371,13.471,34.736,27.317,43.8a26.331,26.331,0,0,0,6.087,2.858c2.079.732,4.457,1.443,6.594,1.985,1.7.445,3.876.95,5.6,1.32,24.6,4.788,50.017,4.64,74.957,2.884a272.921,272.921,0,0,0,27.589-3.452c6.072-1.147,12.064-2.728,18.006-4.415,5.873-1.74,11.839-3.586,17.229-6.49a17.838,17.838,0,0,0,7.9-7.642c5.741-11,13.687-25.837,19.3-36.943.67-1.507.382-1.8-.23-3.287a8.965,8.965,0,0,1-.459-3.131,43.33,43.33,0,0,1,.337-4.716c.358-3.1.83-6.158,1.3-9.219.876-6.118,2.212-12.225,3.464-18.254a25.525,25.525,0,0,0,.631-6.122l-.062-.528-.03-.264-.057-.254-.112-.508a6.626,6.626,0,0,0-2.8-3.611c-4.018-2.5-8.765-3.551-13.33-4.775-4.3-1.04-9.23-2.122-13.542-3.06-4.235-.794-9.424-1.864-13.659-2.495-33.529-5.672-67.76-5.728-101.565-2.687-15.364,1.3-30.767,2.847-45.793,6.4a105.636,105.636,0,0,0-17.522,5.476,29.624,29.624,0,0,0-8.558,5.192,10.394,10.394,0,0,0-1.351,1.594,13.345,13.345,0,0,0-1.723,5.013c-1.343,9.021-.319,18.316.843,27.351a131.759,131.759,0,0,0,3.622,17.976Z" transform="translate(3546.334 -449.018)" fill="url(#linear-gradient)"/>
    <path id="Path_4" data-name="Path 4" d="M-3530.5,547.477c4.809,15.371,13.471,34.736,27.317,43.8a26.331,26.331,0,0,0,6.087,2.858c2.079.732,4.457,1.443,6.594,1.985,1.7.445,3.876.95,5.6,1.32,24.6,4.788,50.017,4.64,74.957,2.884a272.921,272.921,0,0,0,27.589-3.452c6.072-1.147,12.064-2.728,18.006-4.415,5.873-1.74,11.839-3.586,17.229-6.49a17.838,17.838,0,0,0,7.9-7.642c5.741-11,13.687-25.837,19.3-36.943.67-1.507.382-1.8-.23-3.287a8.965,8.965,0,0,1-.459-3.131,43.33,43.33,0,0,1,.337-4.716c.358-3.1.83-6.158,1.3-9.219.876-6.118,2.212-12.225,3.464-18.254a25.525,25.525,0,0,0,.631-6.122l-.062-.528-.03-.264-.057-.254-.112-.508a6.626,6.626,0,0,0-2.8-3.611c-4.018-2.5-8.765-3.551-13.33-4.775-4.3-1.04-9.23-2.122-13.542-3.06-4.235-.794-9.424-1.864-13.659-2.495-33.529-5.672-67.76-5.728-101.565-2.687-15.364,1.3-30.767,2.847-45.793,6.4a105.636,105.636,0,0,0-17.522,5.476,29.624,29.624,0,0,0-8.558,5.192,10.394,10.394,0,0,0-1.351,1.594,13.345,13.345,0,0,0-1.723,5.013c-1.343,9.021-.319,18.316.843,27.351a131.759,131.759,0,0,0,3.622,17.976Z" transform="translate(3546.334 -449.018)" opacity="0.1" fill="url(#linear-gradient-2)"/>
  </g>
</svg>
