<svg xmlns="http://www.w3.org/2000/svg" xmlns:xlink="http://www.w3.org/1999/xlink" width="240" height="180" viewBox="0 0 240 180">
  <defs>
    <linearGradient id="linear-gradient" x1="0.016" y1="0.47" x2="0.986" y2="0.222" gradientUnits="objectBoundingBox">
      <stop offset="0" stop-color="#e3e3e3"/>
      <stop offset="0.084" stop-color="#86858c"/>
      <stop offset="0.251" stop-color="#b8b8ba"/>
      <stop offset="0.398" stop-color="#969697"/>
      <stop offset="0.561" stop-color="#fdfcff"/>
      <stop offset="0.594" stop-color="#858586"/>
      <stop offset="0.841" stop-color="#8d8b8b"/>
      <stop offset="1" stop-color="#d2d2d2"/>
    </linearGradient>
    <clipPath id="clip-_15_-_NO_BLUE_LIGHT_FILTER">
      <rect width="240" height="180"/>
    </clipPath>
  </defs>
  <g id="_15_-_NO_BLUE_LIGHT_FILTER" data-name="15 - NO BLUE LIGHT FILTER" clip-path="url(#clip-_15_-_NO_BLUE_LIGHT_FILTER)">
    <rect width="240" height="180" fill="#fff"/>
    <g id="Group_1" data-name="Group 1" transform="translate(-0.178 -0.645)">
      <path id="Path_2" data-name="Path 2" d="M-2267.823,655.25c-5.241,19.716-16.868,41.243-25.742,47.742-10.626,7.783-42.8,13.677-81.716,12.63-42.944-1.156-62.109-12.031-70.79-19.963s-42.406-55.244-38.285-86.47c2.136-9.368,4.682-16.165,17-24.937,11.225-8,65.975-26.8,128.469-26.14,46.037.484,67.17,9.635,71.109,13.846S-2251.51,593.888-2267.823,655.25Z" transform="translate(2490.295 -546.912)" opacity="0.05"/>
      <path id="Path_1" data-name="Path 1" d="M-2255.424,600.586c-1.51-21.035-11.067-38.816-50.317-44.671s-94.981-.434-134.448,12.144-41.636,22.769-44.638,40.551c-2.136,16.264,7.774,47.057,21.869,68.525s18.432,26.456,32.311,32.528c37.949,16.7,84.572,12.618,111.028,8.24s31.661-9.975,37.732-19.083C-2262.587,669.762-2253.914,621.621-2255.424,600.586Zm-12.4,54.664c-5.241,19.716-16.868,41.243-25.742,47.742-10.626,7.783-42.8,13.677-81.716,12.63-42.944-1.156-62.109-12.031-70.79-19.963s-42.406-55.244-38.285-86.47c2.136-9.368,4.682-16.165,17-24.937,11.225-8,65.975-26.8,128.469-26.14,46.037.484,67.17,9.635,71.109,13.846S-2251.51,593.888-2267.823,655.25Z" transform="translate(2490.295 -546.912)" fill="url(#linear-gradient)"/>
    </g>
    <path id="Path_40" data-name="Path 40" d="M36.661,43.19H7.528a.69.69,0,0,1-.625-.985l5.653-11.992L.2,17.859a.69.69,0,1,1,.976-.976l12,12,3.655-7.754L.749,5.044a.69.69,0,0,1,.976-.976L17.462,19.8l4.007-8.5a.691.691,0,0,1,1.25,0l3.831,8.129L41.876,4H38.407a.69.69,0,1,1,0-1.381H43.46a.686.686,0,0,1,.5.215l.025.023a.691.691,0,0,1,.166.715V8.513a.69.69,0,0,1-1.381,0V5.061L27.177,20.76l3.294,6.989L41.329,16.817H37.861a.69.69,0,1,1,0-1.381h5.053a.686.686,0,0,1,.5.215l.025.023a.691.691,0,0,1,.166.715v4.939a.69.69,0,1,1-1.381,0V17.876L31.1,29.078l6.188,13.128a.69.69,0,0,1-.624.985ZM8.617,41.809H35.572l-5.51-11.69L21.78,38.457a.69.69,0,1,1-.98-.973l8.635-8.693L26.141,21.8l-3.814,3.84a.69.69,0,1,1-.98-.973l4.168-4.2-3.42-7.258Z" transform="translate(97.906 67.473)"/>
  </g>
</svg>
