<svg xmlns="http://www.w3.org/2000/svg" xmlns:xlink="http://www.w3.org/1999/xlink" width="240" height="180" viewBox="0 0 240 180">
  <defs>
    <linearGradient id="linear-gradient" x1="0.016" y1="0.47" x2="0.986" y2="0.222" gradientUnits="objectBoundingBox">
      <stop offset="0" stop-color="#e3e3e3"/>
      <stop offset="0.084" stop-color="#86858c"/>
      <stop offset="0.251" stop-color="#b8b8ba"/>
      <stop offset="0.398" stop-color="#969697"/>
      <stop offset="0.561" stop-color="#fdfcff"/>
      <stop offset="0.594" stop-color="#858586"/>
      <stop offset="0.841" stop-color="#8d8b8b"/>
      <stop offset="1" stop-color="#d2d2d2"/>
    </linearGradient>
    <clipPath id="clip-_16_-_BLUE_FILTER">
      <rect width="240" height="180"/>
    </clipPath>
  </defs>
  <g id="_16_-_BLUE_FILTER" data-name="16 - BLUE FILTER" clip-path="url(#clip-_16_-_BLUE_FILTER)">
    <rect width="240" height="180" fill="#fff"/>
    <g id="Group_1" data-name="Group 1" transform="translate(-0.178 -0.645)">
      <path id="Path_2" data-name="Path 2" d="M-2267.823,655.25c-5.241,19.716-16.868,41.243-25.742,47.742-10.626,7.783-42.8,13.677-81.716,12.63-42.944-1.156-62.109-12.031-70.79-19.963s-42.406-55.244-38.285-86.47c2.136-9.368,4.682-16.165,17-24.937,11.225-8,65.975-26.8,128.469-26.14,46.037.484,67.17,9.635,71.109,13.846S-2251.51,593.888-2267.823,655.25Z" transform="translate(2490.295 -546.912)" opacity="0.1"/>
      <path id="Path_1" data-name="Path 1" d="M-2255.424,600.586c-1.51-21.035-11.067-38.816-50.317-44.671s-94.981-.434-134.448,12.144-41.636,22.769-44.638,40.551c-2.136,16.264,7.774,47.057,21.869,68.525s18.432,26.456,32.311,32.528c37.949,16.7,84.572,12.618,111.028,8.24s31.661-9.975,37.732-19.083C-2262.587,669.762-2253.914,621.621-2255.424,600.586Zm-12.4,54.664c-5.241,19.716-16.868,41.243-25.742,47.742-10.626,7.783-42.8,13.677-81.716,12.63-42.944-1.156-62.109-12.031-70.79-19.963s-42.406-55.244-38.285-86.47c2.136-9.368,4.682-16.165,17-24.937,11.225-8,65.975-26.8,128.469-26.14,46.037.484,67.17,9.635,71.109,13.846S-2251.51,593.888-2267.823,655.25Z" transform="translate(2490.295 -546.912)" fill="url(#linear-gradient)"/>
    </g>
    <g id="Group_20" data-name="Group 20" transform="translate(2597.857 -1324.279)">
      <g id="Group_19" data-name="Group 19" transform="translate(-2501.001 1391.008)">
        <g id="Group_18" data-name="Group 18" transform="translate(0 0)">
          <g id="Group_16" data-name="Group 16" transform="translate(7.742)">
            <path id="Path_41" data-name="Path 41" d="M-2314.178,1411.088l-13.573-18.683a3.445,3.445,0,0,0-1.108-1.015,2.849,2.849,0,0,0-1.406-.382l-4.461.009c-.086-.006-.172-.01-.259-.009a3.129,3.129,0,0,0-1.787.624,3.871,3.871,0,0,0-.9.922l-7.652,10.528,1.126.819,7.652-10.538a2.633,2.633,0,0,1,.6-.605,1.686,1.686,0,0,1,.987-.354,1.533,1.533,0,0,1,.94.307,2.163,2.163,0,0,1,.493.512l13.573,18.683a4.061,4.061,0,0,1,.67,2.4,4.432,4.432,0,0,1-.782,2.495l-13.358,18.395a2.46,2.46,0,0,1-.6.605,1.659,1.659,0,0,1-.977.354,1.5,1.5,0,0,1-.94-.307,2.392,2.392,0,0,1-.5-.512l-7.754-10.687-1.126.819,7.754,10.687a3.564,3.564,0,0,0,.81.819,2.942,2.942,0,0,0,1.759.577h4.59a3.137,3.137,0,0,0,1.545-.419,3.866,3.866,0,0,0,1.229-1.126l13.349-18.395a5.786,5.786,0,0,0,1.043-3.277A5.458,5.458,0,0,0-2314.178,1411.088Zm-1.238,5.716-13.358,18.395a2.477,2.477,0,0,1-.782.726,1.718,1.718,0,0,1-.856.233h-1.994q.057-.073.114-.149l13.349-18.395a5.782,5.782,0,0,0,1.043-3.277,5.458,5.458,0,0,0-.931-3.249l-13.573-18.683h2.141a1.46,1.46,0,0,1,.717.2,2.1,2.1,0,0,1,.67.624l13.573,18.683a4.061,4.061,0,0,1,.67,2.4A4.43,4.43,0,0,1-2315.416,1416.8Z" transform="translate(2352.076 -1391.008)"/>
            <path id="Path_42" data-name="Path 42" d="M-2415.665,1558.68l3.528-4.85-1.126-.819-3.528,4.859a5.854,5.854,0,0,0-1.042,3.277,5.4,5.4,0,0,0,.94,3.249l3.621,4.99,1.126-.819-3.621-4.99a4,4,0,0,1-.67-2.4A4.494,4.494,0,0,1-2415.665,1558.68Z" transform="translate(2417.834 -1537.93)"/>
          </g>
          <g id="Group_17" data-name="Group 17" transform="translate(0 0.003)">
            <path id="Path_43" data-name="Path 43" d="M-2480.814,1633.568a.7.7,0,0,1,.987,0,.7.7,0,0,1,0,.987l-16.5,16.5a.7.7,0,0,1-1,0l-.642-.642-1.359,5.25,5.25-1.359-.642-.642a.686.686,0,0,1,0-.987l.037-.037,19.055-19.083a.683.683,0,0,1,.978-.009.694.694,0,0,1,.009.987l-18.609,18.627,1.024,1.024a.666.666,0,0,1,.177.317.685.685,0,0,1-.493.847l-7.568,1.955a.686.686,0,0,1-.363,0,.685.685,0,0,1-.493-.847l1.936-7.522a.764.764,0,0,1,.2-.372.7.7,0,0,1,.987,0l1.015,1.015Z" transform="translate(2500.994 -1610.791)" fill="aqua"/>
            <path id="Path_44" data-name="Path 44" d="M-2474.649,1413.794a.7.7,0,0,1,0,.987.686.686,0,0,1-.987,0l-22.565-22.556a.7.7,0,0,1,0-.987.7.7,0,0,1,.987,0Zm-26.149-18.972a.7.7,0,0,1,0-.987.7.7,0,0,1,.987,0l19.977,19.977a.7.7,0,0,1,0,.987.7.7,0,0,1-.987,0Z" transform="translate(2501.001 -1391.036)" fill="aqua"/>
          </g>
        </g>
      </g>
    </g>
  </g>
</svg>
