<svg xmlns="http://www.w3.org/2000/svg" xmlns:xlink="http://www.w3.org/1999/xlink" width="240" height="180" viewBox="0 0 240 180">
  <defs>
    <linearGradient id="linear-gradient" x1="0.016" y1="0.47" x2="0.986" y2="0.222" gradientUnits="objectBoundingBox">
      <stop offset="0" stop-color="#e3e3e3"/>
      <stop offset="0.084" stop-color="#86858c"/>
      <stop offset="0.251" stop-color="#b8b8ba"/>
      <stop offset="0.398" stop-color="#969697"/>
      <stop offset="0.561" stop-color="#fdfcff"/>
      <stop offset="0.594" stop-color="#858586"/>
      <stop offset="0.841" stop-color="#8d8b8b"/>
      <stop offset="1" stop-color="#d2d2d2"/>
    </linearGradient>
    <clipPath id="clip-_9_-_PHOTOCHROMIC_GRAY">
      <rect width="240" height="180"/>
    </clipPath>
  </defs>
  <g id="_9_-_PHOTOCHROMIC_GRAY" data-name="9 - PHOTOCHROMIC GRAY" clip-path="url(#clip-_9_-_PHOTOCHROMIC_GRAY)">
    <rect width="240" height="180" fill="#fff"/>
    <g id="Group_8" data-name="Group 8" transform="translate(27.269 19.44)">
      <path id="Path_1" data-name="Path 1" d="M-2310.277,589.355c-1.15-16.011-8.424-29.547-38.3-34s-72.3-.33-102.34,9.244-31.693,17.332-33.978,30.867c-1.625,12.38,5.917,35.819,16.646,52.161s14.031,20.138,24.594,24.76c28.886,12.71,64.375,9.6,84.513,6.272s24.1-7.593,28.721-14.526C-2315.73,642.011-2309.128,605.367-2310.277,589.355Zm-9.438,41.609c-3.99,15.008-12.839,31.393-19.594,36.341-8.089,5.924-32.582,10.411-62.2,9.614-32.688-.88-47.277-9.158-53.885-15.2s-32.279-42.051-29.142-65.82c1.626-7.13,3.564-12.3,12.937-18.982,8.544-6.088,50.219-20.4,97.79-19.9,35.042.369,51.129,7.334,54.127,10.539S-2307.3,584.257-2319.715,630.964Z" transform="translate(2490.295 -546.912)" fill="url(#linear-gradient)"/>
      <path id="Path_14" data-name="Path 14" d="M-2593.135,1400.078c-3.989,15.011-12.841,31.391-19.593,36.339-7.871,5.77-31.27,10.169-59.822,9.659V1327.209a244.724,244.724,0,0,1,25.325-1.073c35.037.373,51.129,7.338,54.121,10.542S-2580.72,1353.371-2593.135,1400.078Z" transform="translate(2763.716 -1316.018)" opacity="0.2" style="isolation: isolate"/>
    </g>
    <g id="Group_7" data-name="Group 7" transform="translate(207.42 0.013)">
      <path id="Path_15" data-name="Path 15" d="M32.166,15.715l-2.715-.9a2.378,2.378,0,0,1-1.028-3.836l1.9-2.14a.6.6,0,0,0-.567-.984l-2.8.574a2.378,2.378,0,0,1-2.806-2.806l.573-2.8a.6.6,0,0,0-.982-.572l-2.14,1.9a2.38,2.38,0,0,1-3.836-1.032L16.854.4a.6.6,0,0,0-1.136,0l-.905,2.715a2.378,2.378,0,0,1-3.835,1.032L8.841,2.252a.6.6,0,0,0-.986.565l.573,2.8A2.378,2.378,0,0,1,5.622,8.425l-2.8-.574a.6.6,0,0,0-.567.984l1.9,2.139a2.38,2.38,0,0,1-1.028,3.836l-2.715.9a.6.6,0,0,0,0,1.136l2.715.905A2.378,2.378,0,0,1,4.15,21.591l-1.9,2.139a.6.6,0,0,0,.567.984l2.8-.573a2.378,2.378,0,0,1,2.806,2.807l-.573,2.8a.6.6,0,0,0,.982.572l2.14-1.9a2.38,2.38,0,0,1,3.836,1.028l.9,2.715a.6.6,0,0,0,1.136,0l.905-2.715a2.378,2.378,0,0,1,3.835-1.028l2.139,1.9a.6.6,0,0,0,.984-.567l-.573-2.8a2.378,2.378,0,0,1,2.807-2.806l2.8.573a.6.6,0,0,0,.572-.982l-1.9-2.14a2.38,2.38,0,0,1,1.029-3.836l2.715-.9a.6.6,0,0,0,0-1.136Zm-3.057,1.01a3.467,3.467,0,0,0-1.5,5.584l.927,1.046-1.369-.28a3.464,3.464,0,0,0-4.088,4.087l.28,1.369-1.047-.926a3.465,3.465,0,0,0-5.586,1.5l-.441,1.328-.443-1.328a3.466,3.466,0,0,0-5.584-1.5l-1.046.927.28-1.369a3.464,3.464,0,0,0-4.087-4.088l-1.369.28.926-1.047a3.465,3.465,0,0,0-1.5-5.586l-1.328-.441,1.328-.442a3.468,3.468,0,0,0,1.5-5.585L4.035,9.208,5.4,9.489A3.464,3.464,0,0,0,9.492,5.4l-.28-1.369,1.047.927a3.465,3.465,0,0,0,5.584-1.5l.443-1.328.442,1.328a3.468,3.468,0,0,0,5.585,1.5l1.046-.927L23.079,5.4a3.463,3.463,0,0,0,4.087,4.088l1.37-.281-.926,1.048a3.465,3.465,0,0,0,1.5,5.586l1.328.441Z"/>
      <path id="Path_16" data-name="Path 16" d="M22.23,13a9.23,9.23,0,1,0,9.23,9.23A9.23,9.23,0,0,0,22.23,13Zm0,17.375a8.145,8.145,0,1,1,8.145-8.145,8.145,8.145,0,0,1-8.145,8.145Z" transform="translate(-5.944 -5.947)"/>
    </g>
    <path id="Path_17" data-name="Path 17" d="M32.977,20.476A11.078,11.078,0,0,0,22.05,10a11.4,11.4,0,0,0-9.022,4.534c-.049-.025-.1-.043-.149-.066-.128-.062-.258-.121-.391-.174-.074-.029-.147-.056-.222-.082-.131-.046-.265-.087-.4-.124-.074-.02-.148-.041-.223-.058-.146-.033-.294-.058-.444-.081-.065-.01-.129-.023-.2-.03A5.8,5.8,0,0,0,4.528,19.7c0,.082.005.163.01.244v0A8.946,8.946,0,0,0,0,27.566a8.319,8.319,0,0,0,8.309,8.31H24.164c.067,0,.134,0,.2-.009l.04-.005.087.005c.066.005.132.009.2.009h6.342A7.79,7.79,0,0,0,38.814,28.1,7.962,7.962,0,0,0,32.977,20.476ZM31.033,34.582H24.692c-.038,0-.075,0-.113-.006l-.175-.007-.128.007c-.037,0-.074.006-.112.006H8.309a7.024,7.024,0,0,1-7.016-7.016,7.69,7.69,0,0,1,4.162-6.633l.367-.175V20.35c0-.082.005-.166.01-.25l.006-.1-.008-.136c0-.052-.008-.1-.008-.158a4.5,4.5,0,0,1,5.122-4.485c.05.006.1.015.151.023a4.41,4.41,0,0,1,.51.115l.069.017a4.407,4.407,0,0,1,.54.208c.046.021.091.043.136.065A4.519,4.519,0,0,1,14.879,19.7a.647.647,0,1,0,1.294,0,5.809,5.809,0,0,0-2.07-4.445,10.247,10.247,0,0,1,7.947-3.965,9.766,9.766,0,0,1,9.605,8.984,12.356,12.356,0,0,0-2.641.08.647.647,0,0,0,.1,1.287.621.621,0,0,0,.1-.008,11.883,11.883,0,0,1,3.03,0A6.63,6.63,0,0,1,37.52,28.1,6.5,6.5,0,0,1,31.033,34.582Z" transform="translate(0 144.124)"/>
  </g>
</svg>
